<svg id="visual" viewBox="0 0 900 600" width="900" height="600" xmlns="http://www.w3.org/2000/svg" xmlns:xlink="http://www.w3.org/1999/xlink" version="1.1"><g stroke-width="1" stroke-linejoin="bevel"><path d="M465 337L406 368L485 437Z" fill="#374944" stroke="#374944"></path><path d="M406 368L401 472L485 437Z" fill="#12272d" stroke="#12272d"></path><path d="M366 284L328 363L406 368Z" fill="#888277" stroke="#888277"></path><path d="M406 368L328 363L401 472Z" fill="#77766a" stroke="#77766a"></path><path d="M465 337L366 284L406 368Z" fill="#77766a" stroke="#77766a"></path><path d="M401 472L507 536L485 437Z" fill="#566055" stroke="#566055"></path><path d="M485 437L618 407L465 337Z" fill="#46544c" stroke="#46544c"></path><path d="M507 536L592 480L485 437Z" fill="#46544c" stroke="#46544c"></path><path d="M592 480L618 407L485 437Z" fill="#77766a" stroke="#77766a"></path><path d="M465 337L485 165L366 284Z" fill="#293e3c" stroke="#293e3c"></path><path d="M366 284L303 314L328 363Z" fill="#00101c" stroke="#00101c"></path><path d="M618 407L638 337L465 337Z" fill="#0a1c25" stroke="#0a1c25"></path><path d="M381 600L488 600L507 536Z" fill="#77766a" stroke="#77766a"></path><path d="M507 536L622 600L592 480Z" fill="#0a1c25" stroke="#0a1c25"></path><path d="M618 407L668 329L638 337Z" fill="#566055" stroke="#566055"></path><path d="M621 228L485 165L465 337Z" fill="#374944" stroke="#374944"></path><path d="M724 404L668 329L618 407Z" fill="#374944" stroke="#374944"></path><path d="M260 530L381 600L401 472Z" fill="#0a1c25" stroke="#0a1c25"></path><path d="M401 472L381 600L507 536Z" fill="#12272d" stroke="#12272d"></path><path d="M239 483L401 472L328 363Z" fill="#1d3235" stroke="#1d3235"></path><path d="M621 228L465 337L638 337Z" fill="#77766a" stroke="#77766a"></path><path d="M366 284L292 197L303 314Z" fill="#77766a" stroke="#77766a"></path><path d="M668 329L621 228L638 337Z" fill="#374944" stroke="#374944"></path><path d="M485 165L387 166L366 284Z" fill="#566055" stroke="#566055"></path><path d="M176 393L239 483L328 363Z" fill="#676b5f" stroke="#676b5f"></path><path d="M239 483L260 530L401 472Z" fill="#77766a" stroke="#77766a"></path><path d="M387 166L292 197L366 284Z" fill="#293e3c" stroke="#293e3c"></path><path d="M303 314L176 393L328 363Z" fill="#566055" stroke="#566055"></path><path d="M292 197L226 268L303 314Z" fill="#00101c" stroke="#00101c"></path><path d="M621 228L509 134L485 165Z" fill="#676b5f" stroke="#676b5f"></path><path d="M485 165L430 102L387 166Z" fill="#374944" stroke="#374944"></path><path d="M488 600L622 600L507 536Z" fill="#676b5f" stroke="#676b5f"></path><path d="M710 530L724 404L618 407Z" fill="#12272d" stroke="#12272d"></path><path d="M710 530L618 407L592 480Z" fill="#77766a" stroke="#77766a"></path><path d="M668 329L739 239L621 228Z" fill="#12272d" stroke="#12272d"></path><path d="M226 268L176 393L303 314Z" fill="#676b5f" stroke="#676b5f"></path><path d="M183 600L265 600L260 530Z" fill="#374944" stroke="#374944"></path><path d="M260 530L265 600L381 600Z" fill="#374944" stroke="#374944"></path><path d="M183 600L260 530L239 483Z" fill="#1d3235" stroke="#1d3235"></path><path d="M622 600L710 530L592 480Z" fill="#676b5f" stroke="#676b5f"></path><path d="M509 134L430 102L485 165Z" fill="#293e3c" stroke="#293e3c"></path><path d="M387 166L271 106L292 197Z" fill="#0a1c25" stroke="#0a1c25"></path><path d="M776 307L739 239L668 329Z" fill="#888277" stroke="#888277"></path><path d="M621 228L636 108L509 134Z" fill="#566055" stroke="#566055"></path><path d="M710 530L776 426L724 404Z" fill="#566055" stroke="#566055"></path><path d="M724 404L776 307L668 329Z" fill="#1d3235" stroke="#1d3235"></path><path d="M776 426L776 307L724 404Z" fill="#293e3c" stroke="#293e3c"></path><path d="M71 215L127 335L226 268Z" fill="#00101c" stroke="#00101c"></path><path d="M226 268L127 335L176 393Z" fill="#566055" stroke="#566055"></path><path d="M176 393L131 500L239 483Z" fill="#293e3c" stroke="#293e3c"></path><path d="M764 200L636 108L621 228Z" fill="#46544c" stroke="#46544c"></path><path d="M509 134L486 0L430 102Z" fill="#293e3c" stroke="#293e3c"></path><path d="M430 102L271 106L387 166Z" fill="#12272d" stroke="#12272d"></path><path d="M292 197L187 163L226 268Z" fill="#00101c" stroke="#00101c"></path><path d="M86 380L131 500L176 393Z" fill="#374944" stroke="#374944"></path><path d="M131 500L183 600L239 483Z" fill="#374944" stroke="#374944"></path><path d="M622 600L739 600L710 530Z" fill="#00101c" stroke="#00101c"></path><path d="M710 530L807 478L776 426Z" fill="#46544c" stroke="#46544c"></path><path d="M271 106L187 163L292 197Z" fill="#566055" stroke="#566055"></path><path d="M765 600L807 478L710 530Z" fill="#293e3c" stroke="#293e3c"></path><path d="M776 426L900 370L776 307Z" fill="#0a1c25" stroke="#0a1c25"></path><path d="M776 307L764 200L739 239Z" fill="#566055" stroke="#566055"></path><path d="M739 239L764 200L621 228Z" fill="#12272d" stroke="#12272d"></path><path d="M900 230L764 200L776 307Z" fill="#374944" stroke="#374944"></path><path d="M0 262L86 380L127 335Z" fill="#12272d" stroke="#12272d"></path><path d="M127 335L86 380L176 393Z" fill="#0a1c25" stroke="#0a1c25"></path><path d="M739 600L765 600L710 530Z" fill="#293e3c" stroke="#293e3c"></path><path d="M0 600L130 600L131 500Z" fill="#12272d" stroke="#12272d"></path><path d="M131 500L130 600L183 600Z" fill="#1d3235" stroke="#1d3235"></path><path d="M582 0L486 0L509 134Z" fill="#566055" stroke="#566055"></path><path d="M430 102L331 0L271 106Z" fill="#12272d" stroke="#12272d"></path><path d="M582 0L509 134L636 108Z" fill="#46544c" stroke="#46544c"></path><path d="M271 106L176 68L187 163Z" fill="#12272d" stroke="#12272d"></path><path d="M486 0L369 0L430 102Z" fill="#77766a" stroke="#77766a"></path><path d="M764 200L689 65L636 108Z" fill="#77766a" stroke="#77766a"></path><path d="M369 0L331 0L430 102Z" fill="#566055" stroke="#566055"></path><path d="M689 65L582 0L636 108Z" fill="#566055" stroke="#566055"></path><path d="M187 163L71 215L226 268Z" fill="#00101c" stroke="#00101c"></path><path d="M83 125L71 215L187 163Z" fill="#888277" stroke="#888277"></path><path d="M211 0L176 68L271 106Z" fill="#374944" stroke="#374944"></path><path d="M900 527L900 370L807 478Z" fill="#566055" stroke="#566055"></path><path d="M807 478L900 370L776 426Z" fill="#676b5f" stroke="#676b5f"></path><path d="M764 200L767 61L689 65Z" fill="#374944" stroke="#374944"></path><path d="M900 82L767 61L764 200Z" fill="#46544c" stroke="#46544c"></path><path d="M689 65L728 0L582 0Z" fill="#293e3c" stroke="#293e3c"></path><path d="M900 370L900 285L776 307Z" fill="#676b5f" stroke="#676b5f"></path><path d="M176 68L83 125L187 163Z" fill="#00101c" stroke="#00101c"></path><path d="M86 380L0 437L131 500Z" fill="#888277" stroke="#888277"></path><path d="M0 262L0 437L86 380Z" fill="#0a1c25" stroke="#0a1c25"></path><path d="M0 262L127 335L71 215Z" fill="#1d3235" stroke="#1d3235"></path><path d="M331 0L211 0L271 106Z" fill="#293e3c" stroke="#293e3c"></path><path d="M65 0L0 89L83 125Z" fill="#77766a" stroke="#77766a"></path><path d="M0 437L0 473L131 500Z" fill="#374944" stroke="#374944"></path><path d="M765 600L900 527L807 478Z" fill="#00101c" stroke="#00101c"></path><path d="M900 285L900 230L776 307Z" fill="#00101c" stroke="#00101c"></path><path d="M0 198L0 262L71 215Z" fill="#0a1c25" stroke="#0a1c25"></path><path d="M812 0L728 0L767 61Z" fill="#676b5f" stroke="#676b5f"></path><path d="M767 61L728 0L689 65Z" fill="#888277" stroke="#888277"></path><path d="M765 600L900 600L900 527Z" fill="#1d3235" stroke="#1d3235"></path><path d="M0 89L0 198L83 125Z" fill="#566055" stroke="#566055"></path><path d="M83 125L0 198L71 215Z" fill="#12272d" stroke="#12272d"></path><path d="M0 473L0 600L131 500Z" fill="#0a1c25" stroke="#0a1c25"></path><path d="M900 82L812 0L767 61Z" fill="#46544c" stroke="#46544c"></path><path d="M900 230L900 82L764 200Z" fill="#12272d" stroke="#12272d"></path><path d="M65 0L83 125L176 68Z" fill="#12272d" stroke="#12272d"></path><path d="M211 0L65 0L176 68Z" fill="#77766a" stroke="#77766a"></path><path d="M900 82L900 0L812 0Z" fill="#676b5f" stroke="#676b5f"></path><path d="M65 0L0 0L0 89Z" fill="#374944" stroke="#374944"></path></g></svg>